<?xml version="1.0" encoding="UTF-8"?>
<svg id="Layer_2" data-name="Layer 2" xmlns="http://www.w3.org/2000/svg" viewBox="0 0 1034.51 1374.25">
  <defs>
    <style>
      .cls-1 {
        fill: #fff;
      }
    </style>
  </defs>
  <g id="Layer_1-2" data-name="Layer 1">
    <rect class="cls-1" y="0" width="1034.51" height="1374.25"/>
    <g>
      <g>
        <rect x="56.34" y="999.08" width="39.85" height="124.84"/>
        <rect x="56.34" y="966.43" width="39.85" height="22.67"/>
        <rect x="575.92" y="1160.41" width="39.85" height="22.67"/>
        <path d="M108.43,1061.26c0-32.07,11.42-64.38,52.04-64.38,20.05,0,32.75,6.61,38.33,14.2v-60.22h39.85v173.06h-17.77l-9.64-19.58c-6.85,10.04-21.83,21.79-46.96,21.79-42.9,0-55.85-33.05-55.85-64.87ZM173.92,1094.55c21.83,0,25.64-13.46,25.64-33.29s-2.79-33.29-25.38-33.29-25.39,13.71-25.39,33.29,3.81,33.29,25.13,33.29Z"/>
        <path d="M250.89,1061.5c0-32.31,13.2-64.62,66.51-64.62,49.75,0,62.19,32.56,62.19,65.36,0,3.67,0,7.34-.51,11.02h-88.34c.25,16.65,8.38,25.95,25.64,25.95,14.47,0,20.56-5.87,22.08-12.97h41.38c-2.28,23.01-22.34,39.9-61.68,39.9-54.32,0-67.27-31.82-67.27-64.62ZM338.47,1047.79c0-12.97-6.35-23.01-23.1-23.01-15.74,0-24.37,7.34-24.37,23.01h47.47Z"/>
        <path d="M389.62,1087.69c0-23.99,17.01-34.03,53.31-37.7l34.02-3.43c0-16.65-5.58-22.03-22.85-22.03-16.25,0-20.82,7.34-20.82,17.38h-38.58c0-26.68,11.17-45.04,58.38-45.04,55.34,0,63.46,23.99,63.46,56.3v70.74h-17.77l-9.39-19.58c-8.88,14.2-22.85,21.79-45.94,21.79-30.46,0-53.82-12.24-53.82-38.43ZM451.56,1099.2c17.77,0,25.64-10.04,25.38-27.66l-25.38,2.94c-15.74,1.71-20.56,5.87-20.56,11.75,0,7.59,6.09,12.97,20.56,12.97Z"/>
        <path d="M527.99,950.86h39.6v173.06h-39.6v-173.06Z"/>
        <path d="M56.34,1192.23h18.02l9.39,16.89c5.84-10.04,18.28-19.09,39.6-19.09,15.74,0,28.94,4.41,37.31,18.11,3.81-6.36,14.98-18.11,36.81-18.11,36.3,0,42.39,23.74,42.39,51.89v75.15h-40.36v-75.88c0-10.28-2.03-18.85-15.48-18.85s-15.99,8.57-15.99,18.85v75.88h-39.85v-75.88c0-10.28-2.03-18.85-15.74-18.85s-16.5,8.57-16.5,18.85v75.88h-39.6v-124.84Z"/>
        <path d="M252.27,1254.65c0-32.31,13.2-64.62,66.51-64.62,49.75,0,62.19,32.56,62.19,65.36,0,3.67,0,7.34-.51,11.02h-88.34c.25,16.65,8.38,25.95,25.64,25.95,14.47,0,20.56-5.87,22.08-12.97h41.38c-2.28,23.01-22.34,39.9-61.68,39.9-54.32,0-67.27-31.82-67.27-64.62ZM339.84,1240.95c0-12.97-6.35-23.01-23.1-23.01-15.74,0-24.37,7.34-24.37,23.01h47.47Z"/>
        <path d="M404.66,1276.68v-53.85h-20.31v-20.81l20.31-9.79v-31.82h38.33v31.82h34.02v30.6h-33v49.94c0,9.55,3.3,17.38,33,14.44v30.84c-58.38,3.67-72.35-7.34-72.35-41.37Z"/>
        <path d="M490.17,1192.23h18.02l8.12,17.87c8.12-12.73,20.56-22.77,47.72-19.83v33.29c-29.7-2.94-34.27,12.48-34.27,33.53v59.97h-39.6v-124.84Z"/>
        <rect x="575.92" y="1192.23" width="39.85" height="124.84"/>
        <path d="M630.83,1254.65c0-32.8,13.96-64.62,66-64.62,41.63,0,61.43,20.81,61.43,53.85h-39.85c-1.52-16.16-7.62-22.03-22.34-22.03-20.31,0-25.89,11.75-25.89,32.56s5.08,33.05,25.89,33.05c15.23,0,20.81-7.1,22.34-21.79h39.85c0,33.05-19.04,53.61-60.67,53.61-53.05,0-66.76-31.82-66.76-64.62Z"/>
        <path d="M770.15,1272.03h38.33c0,11.75,5.58,19.58,25.38,19.58,15.74,0,21.32-5.38,21.32-11.75,0-19.34-83.01-5.63-83.01-49.69,0-22.28,17.01-40.14,59.65-40.14s58.13,15.42,58.13,45.04h-36.55c0-11.02-5.33-18.11-21.58-18.11-15.23,0-19.8,4.16-19.8,11.02,0,19.09,82.5,4.41,82.5,51.4,0,19.09-17.01,39.9-59.4,39.9-45.44,0-64.98-12.97-64.98-47.24Z"/>
      </g>
      <g>
        <path d="M800.54,980.63h0c-23.48-3.89-42.1-20.49-46.97-44.93h0v44.93h46.97Z"/>
        <path d="M753.57,1037.28h0c3.89-23.48,20.49-42.1,44.93-46.97h-44.93v46.97Z"/>
        <path d="M743.9,933.67h0c-3.89,23.48-20.49,42.1-44.93,46.97h44.93s0-46.97,0-46.97Z"/>
        <path d="M696.93,990.31h0c23.48,3.89,42.1,20.49,46.97,44.93h0v-44.93h-46.97Z"/>
        <polygon points="917.76 980.63 791.84 980.63 791.84 985.47 791.84 990.31 917.76 990.31 917.76 980.63"/>
        <polygon points="705.62 980.63 662.21 980.63 662.21 990.31 705.62 990.31 705.62 985.47 705.62 980.63"/>
        <polygon points="791.84 980.63 753.57 980.63 753.57 990.31 791.84 990.31 791.84 985.47 791.84 980.63"/>
        <polygon points="743.9 980.63 705.62 980.63 705.62 985.47 705.62 990.31 743.9 990.31 743.9 980.63"/>
        <polygon points="743.9 1028.58 743.9 1086.87 753.57 1086.87 753.57 1028.58 748.73 1028.58 743.9 1028.58"/>
        <polygon points="753.57 942.36 753.57 884.07 743.9 884.07 743.9 942.36 748.73 942.36 753.57 942.36"/>
        <polygon points="753.57 884.71 753.57 853.33 743.9 853.33 743.9 884.71 748.73 884.71 753.57 884.71"/>
        <polygon points="753.57 1118.25 753.57 1086.87 743.9 1086.87 743.9 1118.25 748.73 1118.25 753.57 1118.25"/>
        <polygon points="630.83 990.31 662.21 990.31 662.21 980.63 630.83 980.63 630.83 985.47 630.83 990.31"/>
        <polygon points="917.25 990.31 978.17 990.31 978.17 980.63 917.25 980.63 917.25 985.47 917.25 990.31"/>
        <polygon points="753.57 980.63 753.57 942.36 748.73 942.36 743.9 942.36 743.9 980.63 753.57 980.63"/>
        <polygon points="743.9 990.31 743.9 1028.58 748.73 1028.58 753.57 1028.58 753.57 990.31 743.9 990.31"/>
        <rect x="743.9" y="980.63" width="9.67" height="9.67"/>
      </g>
    </g>
  </g>
</svg>