<?xml version="1.0" encoding="UTF-8"?>
<svg id="Layer_2" data-name="Layer 2" xmlns="http://www.w3.org/2000/svg" viewBox="0 0 609.22 71.42">
  <defs>
    <style>
      .cls-1 {
        fill: #ff0;
      }
    </style>
  </defs>
  <g id="Layer_1-2" data-name="Layer 1">
    <path d="M527.69,57.36c-8.83,0-10.98-5.41-10.98-14.6s2.37-14.38,10.98-14.38c5.02,0,7.67,1.68,8.85,6.04h17.32c-1.34-12.44-9.74-20.1-25.85-20.1-22.06,0-27.98,14.06-27.98,28.55s5.81,28.55,28.31,28.55c16.16,0,24.28-8.37,25.54-20.85l-16.67-.02c-1.16,4.06-4.4,6.81-9.52,6.81Z"/>
    <path d="M176.78,66.03c-6.15,3.23-8.86,5.39-17.06,5.39-10.87,0-18.65-5.83-18.65-16.54,0-11.98,9.59-15.59,20.89-17.07,10.23-1.27,13.86-2.33,13.86-6.04,0-3.5-2.24-5.83-7.46-5.83-5.54,0-8.31,2.44-8.85,7h-15.99c.43-10.07,8.21-18.66,24.72-18.66,8.21,0,13.75,1.48,17.69,4.45,4.69,3.39,7.53,8.68,7.53,15.46l-.08,27.34c0,4.35.18,6.31,0,7.8l-.03,2.09h-14.33M176.23,50.64v-6.47c-2.24,1.17-5.43,2.01-8.95,2.86-6.71,1.48-9.48,3.18-9.48,7.32,0,4.35,3.2,6.04,7.46,6.04,6.5,0,10.98-3.92,10.98-9.75Z"/>
    <path d="M557.61,50.54h15.9c0,5.19,2.32,8.65,10.53,8.65,6.53,0,8.85-2.38,8.85-5.19,0-8.54-34.44-2.49-34.44-21.95,0-9.84,7.06-17.74,24.75-17.74s24.12,6.81,24.12,19.9h-15.17c0-4.87-2.21-8-8.95-8-6.32,0-8.22,1.84-8.22,4.87,0,8.44,34.23,1.95,34.23,22.71,0,8.44-7.06,17.63-24.65,17.63-18.85,0-26.96-5.73-26.96-20.87Z"/>
    <path d="M438.66,15.38h11.93l1.6,4.09c3.56-5.71,10.18-5.83,22.09-4.51l-3.22,14.48c-13.02-1.32-15.03,5.6-15.03,15.05v26.92h-17.37V15.38Z"/>
    <path d="M326.38,24.6l.34-.11-.34.11c-1.17-3.1-3.21-5.48-5.99-7.1-2.78-1.62-6.29-2.49-10.41-2.64-.64-.02-1.25-.03-1.84-.03-4.56,0-7.59.66-9.6,1.51-1.46.62-2.37,1.34-2.95,1.98l-.25.27-.28-.24c-1.57-1.36-3.58-2.36-5.89-3.02-2.64-.75-5.66-1.08-8.81-1.08-3.12,0-6.39.45-9.22,1.32-2.38.74-4.42,1.78-5.85,3.14l-.36.34-.23-.43c-.35-.66-.93-1.75-1.94-3.62l-.11-.21h-.68c-2.32.01-4.64.02-6.96.02-1.13,0-2.26,0-3.38,0h-2.96s0,6.62,0,6.62h0s0,0,0,0v.12s.02.08.02.08h0s-.01,49.77-.01,49.77h16.85V29.36l.12-.1c.31-.26.73-.51,1.27-.71.94-.37,2.09-.6,3.07-.75.97-.14,1.78-.19,2.06-.19,1.49,0,2.7.14,3.68.45.73.23,1.34.54,1.84.96.75.63,1.28,1.5,1.63,2.7.35,1.19.51,2.7.51,4.57h0s0,35.14,0,35.14h16.85V31.77c0-.15-.01-.23-.01-.33v-2.22l.12-.1c.29-.24.67-.48,1.15-.69.88-.38,1.96-.67,2.96-.85,1-.19,1.91-.27,2.46-.27,1.46,0,2.65.16,3.6.48.72.24,1.31.58,1.79,1.02.73.66,1.25,1.57,1.6,2.81.34,1.23.49,2.78.49,4.67h0s0,35.13,0,35.13h16.85V31.76c0-2.71-.4-5.09-1.18-7.16Z"/>
    <polygon class="cls-1" points="496.51 14.26 479.53 14.26 479.53 23.54 479.58 23.54 479.58 71.42 496.51 71.42 496.51 20.52 496.51 20.52 496.51 14.26"/>
    <polygon points="214.94 0 197.97 0 197.97 11.59 198.02 11.59 198.02 71.42 214.95 71.42 214.95 7.82 214.94 7.82 214.94 0"/>
    <path d="M77.18,0h-17.01v10.17c0,.28-.04.55-.09.8v5.18s-.48-.19-.48-.19c-.16-.07-.32-.13-.47-.19-.22-.09-.44-.16-.6-.22-.17-.06-.29-.1-.36-.12-.96-.28-2.01-.57-3.04-.69-1.75-.22-3.54-.46-5.34-.46-.3,0-.59,0-.89.02-3.03.15-6.28.24-9.28.97-4.55,1.1-8.29,4.02-11.53,7.13-2.25,2.16-3.45,4.85-4.6,7.39h0s-.17.39-.17.39h0s0,.01,0,.01v.02c-1.22,3.58-1.82,7.72-1.83,12.34,0,3.12.2,6.95.83,10.62.63,3.67,1.69,7.18,3.44,9.66,1.34,1.89,2.27,3.06,3.34,3.98,1.08.91,2.28,1.55,4.13,2.39,3.87,1.76,6.86,2.23,9.89,2.23h.05c1.62,0,3.3-.17,5.25-.43,1.23-.17,2.78-.59,4.41-1.17,1.63-.58,3.34-1.31,4.86-2.11,1.1-.58,1.9-1.1,2.55-1.56l.35-.25.16.39c.27.64.43,1.04.53,1.27h0c.06.16.1.24.11.29v.02s.01.02.01.02l.02.05.06.16,1.36,3.32h14.32s.03-8.06.03-8.06v-.36s0-63,0-63ZM58.59,55.73l-.28-.2.28.2c-.1.15-.21.28-.31.42l-.02.03-.02.02c-1.65,1.45-3.72,2.38-5.94,2.71h-.02s-.02,0-.02,0c-.88.25-1.83.35-2.79.35-1.08,0-2.17-.13-3.18-.33-1.73-.34-3.18-1.1-4.37-2.15-1.18-1.05-2.1-2.41-2.74-3.93-.85-2.04-1.15-4.29-1.25-6.55v-.02s-.05-.33-.05-.33c-.04-.31-.05-.63-.05-.97,0-.35.01-.72.01-1.09,0-1.65-.04-3.3-.05-4.94v-.02s0-.02,0-.02l.02-.23v-.02s0,0,0,0v-.02c.05-2.41.32-5.07,1.16-7.08v-.02s.01-.02.01-.02c.22-.74.52-1.43.95-2.07h0s0,0,0,0c.8-1.19,1.83-2.37,3.05-2.96h0s0,0,0,0c0,0,0,0,0,0,1.51-.75,3.61-.97,5.18-.97h.05c.45,0,.86.02,1.18.04h.03s.04,0,.04,0h.16s.03-.01.03-.01c2.53.19,5.04,1.29,6.95,3.02,1.9,1.73,3.2,4.09,3.34,6.81h0s0,.02,0,.02c.01.22.04.5.07.78.03.28.06.55.07.75h0s0,.01,0,.01h0c.02.23.05.66.07,1.09.02.43.04.86.04,1.11.04,1.51.06,2.99.06,4.26,0,1.19,0,2.2,0,2.87,0,.26,0,.47,0,.63v.2s.02.07.02.07h0s.02,3.7.02,3.7c0,1.83-.73,3.41-1.73,4.85Z"/>
    <path d="M424.29,56.87c-1.45.51-2.83.77-4.12.77-2.9,0-4.35-1.28-4.35-3.86v-26.57l15.58-.02v-12.74h-26.12v-.99l2.86-.22c2.44-.15,4.43-.9,5.96-2.26,1.53-1.36,2.33-3.29,2.41-5.78l.08-5.2h-15.91l-.09,10.71c0,1.32-.42,2.28-1.26,2.86-.84.59-1.8.88-2.86.88h-7.22v12.74h11.42l-.3,27.58c0,4.78,1.58,8.74,4.75,11.9,3.17,3.16,7.69,4.74,13.58,4.74,2.98,0,5.94-.48,8.88-1.43,2.94-.95,5.17-2.09,6.7-3.42l-5.96-12.23c-1.22,1.18-2.56,2.02-4.01,2.53Z"/>
    <path d="M130,21.68c-4.8-4.81-11.79-7.41-20.47-7.41h-.01s0,0,0,0h-.02c-8.75,0-15.79,2.66-20.63,7.58-4.84,4.91-7.45,12.04-7.46,20.9h0s0,.06,0,.06c0,8.91,2.68,16.07,7.65,21,4.96,4.93,12.17,7.6,21.14,7.6h.02c10.16,0,18.86-2.96,24.48-8.39l.45-.44.25-.24-8.5-9.61-.79.71c-1.57,1.42-3.31,2.88-5.54,3.98-2.22,1.1-4.92,1.85-8.42,1.85-2.21,0-4.16-.27-5.83-.81-1.67-.53-3.07-1.33-4.19-2.38-1.07-1-1.87-2.2-2.41-3.62-.54-1.42-.81-3.05-.81-4.89v-.79h38.5v-4.64c0-8.68-2.6-15.66-7.4-20.47ZM119.9,37.32v.33h-21v-.79c0-3.34,1.03-6.12,2.94-8.1,1.94-2.01,4.7-3.07,8.02-3.08,3.18,0,5.66,1.03,7.37,2.91,1.71,1.88,2.67,4.64,2.67,8.16v.56Z"/>
    <path d="M380.05,21.67c-4.8-4.81-11.79-7.41-20.47-7.41h-.01s0,0,0,0h-.02c-8.75,0-15.79,2.66-20.63,7.58-4.84,4.91-7.45,12.04-7.46,20.91h0s0,.06,0,.06c0,8.91,2.68,16.08,7.65,21.01,4.96,4.93,12.17,7.6,21.14,7.61h.02c10.16,0,18.86-2.96,24.48-8.39l.45-.44.25-.24-8.5-9.61-.79.71c-1.57,1.43-3.31,2.88-5.54,3.98-2.22,1.1-4.92,1.85-8.42,1.85-2.21,0-4.16-.27-5.83-.81-1.67-.53-3.07-1.33-4.19-2.38-1.07-1-1.87-2.2-2.41-3.62-.54-1.42-.81-3.05-.81-4.9v-.79h38.5v-4.64c0-8.68-2.6-15.67-7.4-20.47ZM369.95,37.31v.33h-21v-.79c0-3.34,1.03-6.13,2.94-8.1,1.94-2.01,4.7-3.08,8.02-3.08,3.18,0,5.66,1.03,7.37,2.91,1.71,1.88,2.67,4.64,2.67,8.16v.56Z"/>
    <g>
      <polygon points="16.98 14.26 0 14.26 0 23.54 .05 23.54 .05 71.42 16.98 71.42 16.98 20.52 16.98 20.52 16.98 14.26"/>
      <rect width="16.98" height="11.66"/>
    </g>
    <g>
      <polygon points="496.51 14.26 479.53 14.26 479.53 23.54 479.58 23.54 479.58 71.42 496.51 71.42 496.51 20.52 496.51 20.52 496.51 14.26"/>
      <rect x="479.53" width="16.98" height="11.66"/>
    </g>
  </g>
</svg>