<?xml version="1.0" encoding="UTF-8"?>
<svg id="Layer_2" data-name="Layer 2" xmlns="http://www.w3.org/2000/svg" viewBox="0 0 134.22 178.3">
  <defs>
    <style>
      .cls-1 {
        fill: #fff;
      }
    </style>
  </defs>
  <g id="Layer_1-2" data-name="Layer 1">
    <rect class="cls-1" width="134.22" height="178.3"/>
    <g>
      <path d="M12.64,139.01c-1.68,0-2.98.89-2.98,2.53s1.3,2.53,2.98,2.53,2.98-.86,2.98-2.53-1.3-2.53-2.98-2.53Z"/>
      <rect x="9.66" y="146.25" width="5.96" height="18.26"/>
      <path d="M30.2,148.07h-.07c-.75-.96-2.76-2.39-5.52-2.39-5.07,0-8.31,3.71-8.31,9.7s3.24,9.7,8.31,9.7c2.76,0,4.77-1.43,5.52-2.39h.07v1.82h5.96v-25.5h-5.96v9.06ZM26.17,160.8c-2.42,0-3.91-1.85-3.91-5.42s1.49-5.42,3.91-5.42,3.91,1.85,3.91,5.42-1.49,5.42-3.91,5.42Z"/>
      <path d="M46.68,145.68c-6.08,0-9.84,4.14-9.84,9.7s3.84,9.7,10.18,9.7c5.18,0,8.16-2.43,9.21-6.1h-5.93c-.37.89-1.34,1.82-3.39,1.82s-4.1-1.36-4.1-3.92h13.72c0-6.63-3.32-11.2-9.84-11.2ZM42.8,153.42c0-2.53,1.6-3.82,3.88-3.82s3.88,1.28,3.88,3.82h-7.75Z"/>
      <path d="M74.9,161.8v-8.38c0-5.74-2.98-7.74-8.35-7.74-6.23,0-8.83,2.96-9.02,6.46h5.59c.19-1.75,1.23-2.53,3.39-2.53,1.64,0,2.42.64,2.42,1.71,0,1.53-2.42,1.89-4.88,2.35-4.47.86-7.27,2.53-7.27,6.17,0,3.07,2.24,5.24,6.26,5.24,2.53,0,4.77-1.14,6-2.5h.07c0,1.28.75,2.5,3.43,2.5,1.19,0,2.27-.14,3.47-.57v-1.36c-.75,0-1.12-.39-1.12-1.36ZM68.93,157.84c0,1.75-1.23,3.32-3.8,3.32-1.45,0-2.39-.64-2.39-2.14,0-1.14.78-2.07,3.13-2.57,1.38-.29,2.31-.53,3.06-.82v2.21Z"/>
      <rect x="76.63" y="139.01" width="5.96" height="25.5"/>
      <path d="M124.57,152.17v12.34h-6.04v-10.52c0-2.75-.6-3.67-2.72-3.67-1.9,0-3.09,1.11-3.09,3.64v10.56h-5.96v-10.52c0-2.75-.6-3.67-2.72-3.67-1.86,0-3.09,1.11-3.09,3.64v10.56h-5.96v-18.26h5.96v2.64h.07c1.01-1.68,3.09-3.21,5.96-3.21,2.5,0,4.25,1.32,5,3.21h.07c1.64-1.82,3.32-3.21,6.41-3.21,3.84,0,6.11,2.32,6.11,6.49Z"/>
      <rect x="86.51" y="150.09" width="4.54" height="8.3"/>
      <g>
        <path d="M33.72,94.65h-.39c0,4.22-4.59,8.81-8.81,8.81v.39c4.22,0,8.81,4.59,8.81,8.81h.39c0-4.22,4.59-8.81,8.81-8.81v-.39c-4.22,0-8.81-4.59-8.81-8.81Z"/>
        <rect x="10.86" y="103.45" width="45.34" height=".39" transform="translate(137.18 70.12) rotate(90)"/>
        <rect x="10.86" y="103.45" width="45.34" height=".39" transform="translate(67.06 207.3) rotate(180)"/>
        <path d="M74.74,103.45h-18.54v.39h18.54c0-.13,0-.26,0-.39Z"/>
      </g>
    </g>
  </g>
</svg>