<?xml version="1.0" encoding="UTF-8"?>
<svg id="Layer_2" data-name="Layer 2" xmlns="http://www.w3.org/2000/svg" viewBox="0 0 237.39 107.88">
  <defs>
    <style>
      .cls-1 {
        fill: #231f20;
      }
    </style>
  </defs>
  <g id="Layer_1-2" data-name="Layer 1">
    <g>
      <path class="cls-1" d="M18.77,63.25c1.02,0,2.1-.26,3.2-.78,1.04-.49,2.05-1.19,3-2.08l-.18,2.73h2.73l5.76-.18v-1.74l-.2-.04c-.6-.12-1.03-.26-1.27-.42-.23-.15-.39-.33-.5-.56-.11-.24-.18-.58-.21-.99-.03-.44-.05-1.15-.05-2.12v-22.16h-2.8l-5.86.28v1.73l.2.04c.8.15,1.15.31,1.31.41.22.14.38.33.48.59.12.28.2.69.23,1.23.04.56.06,1.53.06,2.89v1.43c-.66-.16-1.25-.28-1.76-.34-.59-.07-1.19-.11-1.79-.11-2.1,0-3.92.4-5.42,1.18-1.51.79-2.66,1.97-3.42,3.5-.76,1.52-1.14,3.41-1.14,5.62,0,3.26.63,5.74,1.89,7.38,1.27,1.66,3.19,2.5,5.73,2.5ZM17.82,52.47c0-1.44.15-2.71.45-3.76.29-1.03.72-1.82,1.29-2.36.56-.53,1.21-.79,1.99-.79,1.07,0,1.84.34,2.35,1.03.52.71.78,1.83.78,3.33v6.4c0,.69-.18,1.3-.54,1.83-.37.53-.82.93-1.35,1.18-.54.26-1.09.39-1.63.39-1.14,0-1.95-.56-2.49-1.72-.56-1.2-.85-3.07-.85-5.54Z"/>
      <path class="cls-1" d="M43.3,63.25c1.78,0,3.38-.3,4.76-.89,1.38-.59,2.78-1.6,4.18-2.99l.17-.17-1.99-2.05-.18.17c-.94.9-1.81,1.53-2.6,1.88-.79.35-1.69.53-2.68.53-1.67,0-2.92-.52-3.73-1.55-.79-1.01-1.21-2.59-1.25-4.72h12.86v-.25c-.02-1.53-.16-2.85-.44-3.92-.26-1.06-.66-2.02-1.19-2.84-.45-.7-1.02-1.31-1.71-1.81-.68-.5-1.51-.89-2.46-1.16-.94-.27-2.06-.41-3.3-.41-2.02,0-3.82.4-5.35,1.19-1.54.79-2.75,1.98-3.58,3.52-.83,1.54-1.26,3.38-1.26,5.49,0,3.27.83,5.78,2.45,7.45,1.63,1.68,4.08,2.53,7.29,2.53ZM40.1,50.89c.14-1.71.49-3.03,1.05-3.94.57-.93,1.31-1.38,2.27-1.38s1.68.43,2.13,1.31c.45.88.71,2.23.78,4.02h-6.23Z"/>
      <path class="cls-1" d="M57.17,62.62c.89.42,1.94.63,3.14.63s2.36-.24,3.44-.71c1.03-.45,2.09-1.18,3.17-2.15l-.19,2.56h8.06v-1.72l-.19-.05c-.53-.13-.89-.23-1.07-.3-.16-.07-.31-.16-.42-.27-.11-.11-.2-.26-.28-.45-.08-.2-.14-.52-.18-.96-.04-.45-.06-1.1-.06-1.94v-7.5c0-1.66-.26-2.99-.76-3.94-.51-.97-1.29-1.68-2.33-2.11-1.01-.42-2.36-.63-4.02-.63-.64,0-1.29.04-1.94.12-.64.08-1.37.21-2.19.4-.8.18-1.63.42-2.47.71-.82.28-1.87.69-3.12,1.22l-.15.06v3.91h4.29l.04-.21c.17-.98.43-1.74.78-2.28.34-.53.71-.89,1.12-1.07.42-.19.93-.29,1.51-.29s1.07.12,1.48.36c.4.23.73.65.99,1.25.27.61.4,1.51.4,2.66v1.59c-3.88.29-6.83.99-8.77,2.06-2.03,1.12-3.06,2.7-3.06,4.67,0,.98.23,1.86.7,2.61.46.76,1.15,1.35,2.05,1.78ZM62,54.94c.92-.63,2.35-.99,4.26-1.06v2.93c0,.54-.15,1.06-.45,1.54-.3.49-.71.88-1.23,1.17-.51.29-1.07.44-1.64.44-.74,0-1.33-.19-1.74-.56-.41-.37-.61-.9-.61-1.63,0-1.26.46-2.18,1.4-2.83Z"/>
      <path class="cls-1" d="M77.14,37.27c.22.11.38.25.5.43.12.18.21.43.27.75.06.34.1.77.12,1.27.02.51.03,1.33.03,2.42v14.99c0,.81-.01,1.44-.04,1.88-.03.42-.08.74-.17.96-.08.22-.18.41-.3.55-.11.13-.26.25-.46.36-.21.11-.51.21-.89.29l-.2.04v1.72h10.44v-1.71l-.19-.05c-.64-.15-1.07-.35-1.28-.59-.22-.24-.36-.57-.44-.98-.08-.45-.12-1.28-.12-2.48v-22.22h-2.8l-5.86.28v1.72l.21.04c.54.1.94.21,1.17.32Z"/>
      <path class="cls-1" d="M53.28,104.38c-.37-.18-.66-.41-.86-.68-.21-.27-.37-.62-.49-1.06-.12-.45-.2-1.06-.23-1.82-.03-.78-.05-1.62-.05-2.51v-11.14c0-1.88-.17-3.53-.51-4.88-.34-1.37-.89-2.54-1.64-3.46-.76-.93-1.73-1.62-2.89-2.06-1.15-.44-2.62-.66-4.36-.66s-3.49.4-5.12,1.19c-1.55.75-3.38,2.04-5.44,3.83-.44-1.08-1.01-1.97-1.7-2.67-.75-.76-1.68-1.35-2.77-1.75-1.08-.4-2.44-.6-4.05-.6s-3.31.37-4.9,1.09c-1.56.71-3.32,1.92-5.25,3.62h-.05s.49-4.46.49-4.46h-4.34l-9.07.25v2.52l.2.04c.99.2,1.7.43,2.09.68.38.25.66.57.84.96.19.41.31.97.36,1.65.05.71.08,1.83.08,3.32v12.55c0,1.91-.07,3.24-.21,3.95-.13.68-.38,1.23-.74,1.62-.36.39-1.04.71-2.02.97l-.19.05v2.46h15.93v-2.46l-.19-.04c-.91-.21-1.55-.52-1.9-.91-.35-.4-.59-.96-.7-1.67-.12-.75-.17-2.09-.17-3.98v-11.81c0-.9.28-1.75.84-2.54.56-.8,1.27-1.43,2.1-1.88.83-.45,1.63-.67,2.38-.67.57,0,1.04.07,1.41.2.36.13.68.32.95.56.27.24.51.57.72.97.21.41.39.89.51,1.43.12.55.22,1.3.27,2.2.05.93.08,2.07.08,3.39v8.18c0,1.93-.06,3.28-.19,4-.12.69-.36,1.24-.7,1.63-.34.38-.98.69-1.91.9l-.19.04v2.46h15.83v-2.46l-.19-.05c-.76-.19-1.32-.43-1.66-.7-.34-.27-.59-.6-.74-1.01-.16-.42-.27-.99-.32-1.7-.05-.72-.08-1.79-.08-3.16v-9.95c0-1.19.04-2.05.11-2.56.07-.5.2-.96.4-1.36.19-.4.45-.77.77-1.09.33-.33.74-.67,1.21-.99.46-.32.92-.56,1.37-.72.45-.15.94-.23,1.46-.23.77,0,1.39.13,1.86.4.46.26.87.7,1.21,1.31.35.62.59,1.5.71,2.61.13,1.13.19,2.63.19,4.44v8.18c0,1.91-.07,3.25-.21,3.98-.13.71-.37,1.26-.7,1.65-.33.38-.96.69-1.86.9l-.19.04v2.46h16.03v-2.46l-.19-.05c-.56-.14-1.04-.3-1.43-.5Z"/>
      <path class="cls-1" d="M85.48,92.09c-.02-2.41-.25-4.49-.68-6.19-.41-1.67-1.04-3.17-1.87-4.47-.7-1.1-1.6-2.05-2.67-2.83-1.07-.78-2.37-1.39-3.86-1.82-1.49-.43-3.24-.65-5.21-.65-3.18,0-6.02.63-8.43,1.88-2.42,1.25-4.31,3.11-5.63,5.54-1.31,2.42-1.98,5.33-1.98,8.65,0,5.15,1.3,9.1,3.86,11.73,2.56,2.63,6.42,3.97,11.47,3.97,2.81,0,5.34-.47,7.51-1.39,2.17-.92,4.38-2.51,6.59-4.72l.17-.17-2.95-3.04-.18.17c-1.5,1.44-2.9,2.46-4.18,3.02-1.27.56-2.72.85-4.31.85-2.7,0-4.73-.85-6.04-2.51-1.29-1.65-1.97-4.25-2.02-7.73h20.42v-.25ZM66.93,82.06c.94-1.52,2.16-2.26,3.73-2.26s2.78.7,3.51,2.15c.73,1.44,1.15,3.66,1.25,6.6h-10.2c.21-2.81.78-4.99,1.7-6.49Z"/>
      <path class="cls-1" d="M107.49,100.72c-.56.47-1.1.84-1.61,1.1-.5.25-.99.43-1.44.53-.45.1-.98.15-1.56.15-.73,0-1.33-.23-1.82-.71-.5-.48-.86-1.25-1.07-2.3-.22-1.08-.33-2.78-.33-5.05v-13.52h9.18v-4.32h-9.18v-7.63h-8.18l-.02.23c-.11,1.63-.26,3.01-.46,4.09-.2,1.07-.47,1.95-.8,2.6-.32.64-.78,1.16-1.36,1.54-.59.39-1.53.68-2.8.88l-.21.03v2.57h4.03v16.81c0,3.37.82,5.93,2.44,7.61,1.62,1.68,4.09,2.53,7.35,2.53,1.74,0,3.42-.32,4.99-.95,1.56-.63,3.32-1.72,5.22-3.26l.19-.16-2.34-2.96-.2.17Z"/>
      <path class="cls-1" d="M135.29,76.12c-1.96,0-3.8.4-5.49,1.18-1.64.77-3.26,2.03-4.81,3.74h-.06s.46-4.68.46-4.68h-4.34l-9.07.25v2.52l.2.04c.99.2,1.7.43,2.09.68.38.25.66.57.84.96.19.41.31.96.36,1.65.05.71.08,1.83.08,3.32v12.55c0,1.91-.07,3.24-.21,3.95-.13.68-.38,1.23-.74,1.62-.36.39-1.04.71-2.02.97l-.19.05v2.46h16.38v-2.48l-.21-.04c-1.02-.17-1.74-.46-2.16-.86s-.69-.97-.83-1.68c-.15-.75-.22-2.1-.22-4.01v-9.74c0-1.04.03-1.83.09-2.35.06-.51.19-1.01.39-1.51.19-.48.52-.97.98-1.44.46-.47.97-.85,1.51-1.11.53-.26,1.02-.39,1.45-.39.92,0,1.64.28,2.19.87.56.6,1.03,1.48,1.38,2.62l.05.18h6.26v-8.88l-.2-.04c-1.45-.27-2.85-.4-4.17-.4Z"/>
      <path class="cls-1" d="M157.31,104.41c-.33-.17-.59-.35-.76-.55h0c-.18-.2-.32-.43-.43-.67-.11-.25-.2-.53-.26-.85-.06-.32-.11-.79-.14-1.4-.03-.62-.05-1.5-.05-2.63v-21.95h-4.28l-9.1.25v2.52l.2.04c.71.14,1.29.3,1.74.49.42.17.75.43.99.76.24.33.41.79.5,1.36.09.6.14,1.39.14,2.37v14.19c0,1.91-.07,3.24-.2,3.95-.13.68-.38,1.23-.74,1.62-.36.39-1.05.71-2.05.97l-.19.05v2.46h16.22v-2.46l-.19-.04c-.57-.14-1.04-.29-1.39-.47Z"/>
      <rect class="cls-1" x="145.31" y="68.88" width="9.33" height="5.74"/>
      <path class="cls-1" d="M1.29,45.35c.25.11.45.25.59.45.15.2.25.48.3.82.06.37.09.88.09,1.5v9.03c0,1.21-.04,2.05-.13,2.5-.08.42-.23.75-.45.98-.22.24-.64.43-1.26.59l-.19.05v1.73h10.5v-1.73l-.19-.04c-.36-.08-.65-.18-.87-.29-.2-.1-.35-.21-.46-.33h0c-.11-.12-.19-.26-.26-.4-.07-.15-.12-.32-.16-.52-.04-.2-.07-.49-.09-.88-.02-.39-.03-.95-.03-1.67v-14.06h-2.82l-5.88.16v1.77l.2.04c.45.09.81.19,1.09.31Z"/>
      <rect class="cls-1" x="2.56" y="38.31" width="6.12" height="3.83"/>
      <path class="cls-1" d="M182.84,99.14c-1.48,1.3-2.77,2.21-3.85,2.71-1.07.49-2.22.74-3.42.74-1.65,0-2.99-.43-3.99-1.27-1.01-.85-1.75-2.08-2.21-3.66-.46-1.61-.7-3.61-.7-5.96s.16-4.33.48-5.86c.32-1.52.74-2.75,1.28-3.65.52-.88,1.13-1.51,1.8-1.86.68-.36,1.41-.54,2.16-.54,1.13,0,1.97.4,2.57,1.21.62.84,1.09,2.21,1.4,4.08l.04.21h6.84v-7.79l-.18-.05c-1.42-.41-3.02-.73-4.75-.97-1.74-.23-3.5-.35-5.24-.35-3.26,0-6.21.64-8.74,1.9-2.55,1.27-4.53,3.16-5.89,5.63-1.36,2.46-2.04,5.41-2.04,8.78,0,4.99,1.26,8.85,3.74,11.48,2.49,2.63,6.13,3.97,10.84,3.97,2.34,0,4.54-.43,6.53-1.29,1.98-.85,4.06-2.28,6.18-4.24l.18-.17-2.8-3.21-.19.17Z"/>
      <path class="cls-1" d="M211.75,94.06c-.68-1.16-1.68-2.19-2.97-3.07-1.28-.87-2.96-1.72-4.98-2.51-2.18-.86-3.67-1.56-4.43-2.07-.74-.49-1.25-1-1.53-1.51-.28-.51-.42-1.14-.42-1.86,0-1.02.38-1.8,1.15-2.36.79-.58,1.88-.87,3.24-.87.95,0,1.78.13,2.45.4.66.26,1.29.73,1.85,1.41.57.69,1.1,1.68,1.58,2.95l.06.16h4.67v-7.57l-.21-.04c-2.38-.41-4.35-.67-5.85-.8-1.51-.12-3.06-.18-4.63-.18-2.68,0-5.1.36-7.18,1.08-2.11.72-3.75,1.79-4.9,3.16-1.15,1.38-1.73,3.04-1.73,4.92,0,1.15.24,2.22.7,3.16.46.94,1.1,1.8,1.89,2.56.79.75,1.72,1.44,2.77,2.04,1.04.59,2.18,1.14,3.36,1.63,2.09.87,3.57,1.58,4.43,2.1.83.52,1.44,1.06,1.79,1.62.35.55.52,1.22.52,2,0,1.26-.38,2.18-1.15,2.83-.78.65-1.95.98-3.5.98-1.8,0-3.25-.45-4.32-1.33-1.07-.89-1.87-2.25-2.37-4.04l-.05-.18h-4.76v7.75l.2.04c4.34.96,8.33,1.44,11.88,1.44,1.96,0,3.79-.19,5.42-.57,1.64-.38,3.07-.97,4.25-1.76,1.19-.79,2.13-1.81,2.79-3.04.66-1.22,1-2.69,1-4.38,0-1.54-.35-2.92-1.03-4.08Z"/>
      <g>
        <path d="M173,19.49h-.56c0,6.02-6.55,12.57-12.57,12.57v.56c6.02,0,12.57,6.55,12.57,12.57h.56c0-6.02,6.55-12.57,12.57-12.57v-.56c-6.02,0-12.57-6.55-12.57-12.57Z"/>
        <rect x="140.38" y="32.05" width="64.67" height=".56" transform="translate(205.05 -140.38) rotate(90)"/>
        <rect x="140.38" y="32.05" width="64.67" height=".56" transform="translate(345.44 64.67) rotate(180)"/>
        <rect x="205.05" y="32.05" width="32.33" height=".56" transform="translate(442.44 64.67) rotate(180)"/>
      </g>
    </g>
  </g>
</svg>