<?xml version="1.0" encoding="UTF-8"?>
<svg id="Layer_2" data-name="Layer 2" xmlns="http://www.w3.org/2000/svg" viewBox="0 0 225.09 102.35">
  <g id="Layer_1-2" data-name="Layer 1">
    <rect y="13.14" width="10.99" height="34.01"/>
    <rect y="4.24" width="10.99" height="6.17"/>
    <rect x="139.25" y="59.08" width="10.99" height="6.17"/>
    <path d="M13.23,30.07c0-8.73,3.15-17.54,14.35-17.54,5.53,0,9.03,1.8,10.57,3.87V0h10.99v47.14h-4.9l-2.66-5.33c-1.89,2.73-6.02,5.93-12.95,5.93-11.83,0-15.4-9-15.4-17.67ZM31.29,39.14c6.02,0,7.07-3.67,7.07-9.07s-.77-9.07-7-9.07-7,3.73-7,9.07,1.05,9.07,6.93,9.07Z"/>
    <path d="M51.52,30.14c0-8.8,3.64-17.6,18.34-17.6,13.72,0,17.15,8.87,17.15,17.8,0,1,0,2-.14,3h-24.35c.07,4.53,2.31,7.07,7.07,7.07,3.99,0,5.67-1.6,6.09-3.53h11.41c-.63,6.27-6.16,10.87-17.01,10.87-14.98,0-18.55-8.67-18.55-17.6ZM75.66,26.4c0-3.53-1.75-6.27-6.37-6.27-4.34,0-6.72,2-6.72,6.27h13.09Z"/>
    <path d="M89.77,37.27c0-6.53,4.69-9.27,14.7-10.27l9.38-.93c0-4.53-1.54-6-6.3-6-4.48,0-5.74,2-5.74,4.73h-10.64c0-7.27,3.08-12.27,16.1-12.27,15.26,0,17.5,6.53,17.5,15.34v19.27h-4.9l-2.59-5.33c-2.45,3.87-6.3,5.93-12.67,5.93-8.4,0-14.84-3.33-14.84-10.47ZM106.84,40.41c4.9,0,7.07-2.73,7-7.53l-7,.8c-4.34.47-5.67,1.6-5.67,3.2,0,2.07,1.68,3.53,5.67,3.53Z"/>
    <path d="M127.91,0h10.92v47.14h-10.92V0Z"/>
    <path d="M0,67.75h4.97l2.59,4.6c1.61-2.73,5.04-5.2,10.92-5.2,4.34,0,7.98,1.2,10.29,4.93,1.05-1.73,4.13-4.93,10.15-4.93,10.01,0,11.69,6.47,11.69,14.14v20.47h-11.13v-20.67c0-2.8-.56-5.13-4.27-5.13s-4.41,2.33-4.41,5.13v20.67h-10.99v-20.67c0-2.8-.56-5.13-4.34-5.13s-4.55,2.33-4.55,5.13v20.67H0v-34.01Z"/>
    <path d="M53.02,84.75c0-8.8,3.64-17.6,18.34-17.6,13.72,0,17.15,8.87,17.15,17.8,0,1,0,2-.14,3h-24.35c.07,4.53,2.31,7.07,7.07,7.07,3.99,0,5.67-1.6,6.09-3.53h11.41c-.63,6.27-6.16,10.87-17.01,10.87-14.98,0-18.55-8.67-18.55-17.6ZM77.16,81.02c0-3.53-1.75-6.27-6.37-6.27-4.34,0-6.72,2-6.72,6.27h13.09Z"/>
    <path d="M94.03,90.75v-14.67h-5.6v-5.67l5.6-2.67v-8.67h10.57v8.67h9.38v8.33h-9.1v13.6c0,2.6.91,4.73,9.1,3.93v8.4c-16.1,1-19.95-2-19.95-11.27Z"/>
    <path d="M116.61,67.75h4.97l2.24,4.87c2.24-3.47,5.67-6.2,13.16-5.4v9.07c-8.19-.8-9.45,3.4-9.45,9.13v16.34h-10.92v-34.01Z"/>
    <rect x="139.25" y="67.75" width="10.99" height="34.01"/>
    <path d="M153.39,84.75c0-8.93,3.85-17.6,18.2-17.6,11.48,0,16.94,5.67,16.94,14.67h-10.99c-.42-4.4-2.1-6-6.16-6-5.6,0-7.14,3.2-7.14,8.87s1.4,9,7.14,9c4.2,0,5.74-1.93,6.16-5.93h10.99c0,9-5.25,14.6-16.73,14.6-14.63,0-18.41-8.67-18.41-17.6Z"/>
    <path d="M190.8,89.48h10.57c0,3.2,1.54,5.33,7,5.33,4.34,0,5.88-1.47,5.88-3.2,0-5.27-22.88-1.53-22.88-13.54,0-6.07,4.69-10.94,16.45-10.94s16.03,4.2,16.03,12.27h-10.08c0-3-1.47-4.93-5.95-4.93-4.2,0-5.46,1.13-5.46,3,0,5.2,22.74,1.2,22.74,14,0,5.2-4.69,10.87-16.38,10.87-12.53,0-17.92-3.53-17.92-12.87Z"/>
  </g>
</svg>