<?xml version="1.0" encoding="UTF-8"?>
<svg id="Layer_2" data-name="Layer 2" xmlns="http://www.w3.org/2000/svg" viewBox="0 0 180.46 83.06">
  <defs>
    <style>
      .cls-1 {
        fill: #010101;
      }
    </style>
  </defs>
  <g id="Layer_1-2" data-name="Layer 1">
    <path d="M104,57.78v6.5h-.1c-4.13-.72-8.5,1.44-8.5,6.69v11.46h-8.05v-24.65h8.05v3.43h.21c1.26-2.75,2.79-3.83,5.61-3.83.7,0,1.88.22,2.79.41Z"/>
    <g>
      <path d="M2.31,29.37c-1.3,0-2.31.69-2.31,1.96s1.01,1.96,2.31,1.96,2.31-.66,2.31-1.96-1.01-1.96-2.31-1.96Z"/>
      <rect y="34.97" width="4.61" height="14.12"/>
      <path d="M15.89,36.38h-.06c-.58-.74-2.13-1.85-4.27-1.85-3.92,0-6.43,2.87-6.43,7.5s2.51,7.5,6.43,7.5c2.13,0,3.69-1.1,4.27-1.85h.06v1.41h4.61v-19.72h-4.61v7.01ZM12.77,46.22c-1.87,0-3.03-1.43-3.03-4.19s1.15-4.19,3.03-4.19,3.03,1.43,3.03,4.19-1.15,4.19-3.03,4.19Z"/>
      <path d="M28.63,34.53c-4.7,0-7.61,3.2-7.61,7.5s2.97,7.5,7.87,7.5c4.01,0,6.31-1.88,7.12-4.72h-4.58c-.29.69-1.04,1.41-2.62,1.41s-3.17-1.05-3.17-3.03h10.61c0-5.13-2.57-8.66-7.61-8.66ZM25.63,40.51c0-1.96,1.24-2.95,3-2.95s3,.99,3,2.95h-6Z"/>
      <path d="M50.45,46.99v-6.48c0-4.44-2.31-5.99-6.46-5.99-4.81,0-6.83,2.29-6.98,4.99h4.32c.14-1.35.95-1.96,2.62-1.96,1.27,0,1.87.5,1.87,1.32,0,1.19-1.87,1.46-3.78,1.82-3.46.66-5.62,1.96-5.62,4.77,0,2.37,1.73,4.05,4.84,4.05,1.96,0,3.69-.88,4.64-1.93h.06c0,.99.58,1.93,2.65,1.93.92,0,1.76-.11,2.68-.44v-1.05c-.58,0-.86-.3-.86-1.05ZM45.84,43.93c0,1.35-.95,2.57-2.94,2.57-1.12,0-1.84-.5-1.84-1.65,0-.88.61-1.6,2.42-1.99,1.07-.22,1.79-.41,2.36-.63v1.71Z"/>
      <rect x="51.79" y="29.37" width="4.61" height="19.72"/>
    </g>
    <path d="M39.95,65.63v16.66h-8.15v-14.2c0-3.71-.81-4.96-3.67-4.96-2.57,0-4.18,1.49-4.18,4.91v14.25h-8.05v-14.2c0-3.71-.81-4.96-3.67-4.96-2.52,0-4.18,1.49-4.18,4.91v14.25H0v-24.65h8.05v3.56h.1c1.36-2.26,4.18-4.33,8.05-4.33,3.37,0,5.74,1.78,6.74,4.33h.1c2.21-2.46,4.48-4.33,8.65-4.33,5.18,0,8.25,3.13,8.25,8.76Z"/>
    <path d="M59.26,74.83h8c-1.41,4.96-5.43,8.23-12.43,8.23-8.55,0-13.74-5.39-13.74-13.09s5.08-13.09,13.28-13.09c8.81,0,13.28,6.16,13.28,15.12h-18.52c0,3.47,2.67,5.3,5.53,5.3s4.08-1.25,4.58-2.46ZM49.15,67.32h10.47c0-3.42-2.16-5.15-5.23-5.15s-5.23,1.73-5.23,5.15Z"/>
    <path d="M104.57,51.29c0-2.21,1.76-3.42,4.03-3.42s4.03,1.2,4.03,3.42-1.76,3.42-4.03,3.42-4.03-1.16-4.03-3.42ZM112.62,57.64v24.65h-8.05v-24.65h8.05Z"/>
    <path d="M126.98,77.22c-3.37,0-5.18-2.7-5.18-7.32s1.86-7.32,5.18-7.32c2.6,0,3.83,1.45,4.33,3.05h7.96c-1.09-5.14-5.45-8.82-12.44-8.82-7.95,0-13.08,5.44-13.08,13.09s5.13,13.09,13.28,13.09c6.86,0,11.34-3.65,12.27-8.82h-7.99c-.5,1.69-1.73,3.05-4.33,3.05Z"/>
    <path d="M163.55,75.02c0,5.2-4.13,8.04-11.27,8.04-9.21,0-12.73-3.95-12.98-8.95h7.55c.25,2.46,1.96,3.66,5.13,3.66,2.26,0,3.52-.72,3.52-2.12,0-2.12-2.42-2.41-6.49-3.27-4.38-.91-9.21-2.46-9.21-7.61,0-4.48,4.03-7.9,11.27-7.9,8.25,0,11.47,4,11.72,8.33h-7.55c-.25-1.97-1.36-3.03-3.98-3.03-2.26,0-3.42.77-3.42,1.97,0,1.73,1.61,1.78,5.59,2.6,5.08,1.06,10.11,2.7,10.11,8.28Z"/>
    <g>
      <path d="M134.28,15.38h-.44c0,4.75-5.17,9.92-9.92,9.92v.44c4.75,0,9.92,5.17,9.92,9.92h.44c0-4.75,5.17-9.92,9.92-9.92v-.44c-4.75,0-9.92-5.17-9.92-9.92Z"/>
      <rect x="108.54" y="25.3" width="51.05" height=".44" transform="translate(159.58 -108.54) rotate(90)"/>
      <rect x="108.54" y="25.3" width="51.05" height=".44" transform="translate(268.12 51.05) rotate(180)"/>
      <path d="M180.46,25.3h-20.88v.44h20.87c0-.15,0-.29,0-.44Z"/>
    </g>
    <path class="cls-1" d="M82.38,76.37c-.64.23-1.25.34-1.82.34-1.28,0-1.92-.57-1.92-1.7v-11.72h8.14v-5.63h-12.78v-.44l1.26-.1c1.08-.06,1.95-.4,2.63-1,.67-.6,1.03-1.45,1.06-2.55l.03-2.29h-7.02l-.04,4.72c0,.58-.19,1-.56,1.26-.37.26-.79.39-1.26.39h-3.18v5.62h5.04l-.13,12.17c0,2.11.7,3.86,2.1,5.25,1.4,1.39,3.39,2.09,5.99,2.09,1.31,0,2.62-.21,3.92-.63,1.3-.42,2.28-.92,2.96-1.51l-2.63-5.39c-.54.52-1.13.89-1.77,1.12Z"/>
  </g>
</svg>