<?xml version="1.0" encoding="UTF-8"?>
<svg id="Layer_2" data-name="Layer 2" xmlns="http://www.w3.org/2000/svg" viewBox="0 0 134.22 178.3">
  <defs>
    <style>
      .cls-1 {
        fill: #fff;
      }
    </style>
  </defs>
  <g id="Layer_1-2" data-name="Layer 1">
    <rect class="cls-1" width="134.22" height="178.3"/>
    <g>
      <g>
        <path d="M40.24,88.87h-.54c0,5.85-6.36,12.22-12.22,12.22v.54c5.85,0,12.22,6.36,12.22,12.22h.54c0-5.85,6.36-12.22,12.22-12.22v-.54c-5.85,0-12.22-6.36-12.22-12.22Z"/>
        <rect x="8.54" y="101.09" width="62.86" height=".54" transform="translate(141.33 61.39) rotate(90)"/>
        <rect x="8.54" y="101.09" width="62.86" height=".54" transform="translate(79.94 202.72) rotate(180)"/>
        <rect x="71.4" y="101.09" width="31.43" height=".54" transform="translate(174.24 202.72) rotate(180)"/>
      </g>
      <g>
        <g>
          <rect x="88.26" y="154.18" width="3.42" height="6.78"/>
          <path d="M94.36,148.81v1.56l.12.02c.57.11.97.24,1.19.39.22.14.38.33.48.55.11.23.18.55.21.94.03.41.05,1.05.05,1.9v7.16c0,1.09-.04,1.85-.12,2.26-.07.39-.22.7-.42.92-.21.22-.6.41-1.15.55l-.11.03v1.4h9.1v-1.41l-.11-.03c-.52-.12-.88-.3-1.08-.52-.2-.23-.34-.55-.4-.96-.07-.43-.1-1.19-.1-2.27v-6.75c0-.51.16-1,.48-1.45.32-.46.73-.82,1.2-1.07.47-.25.93-.38,1.36-.38.33,0,.6.04.81.11.21.07.39.18.54.32.15.14.29.33.41.55.12.23.22.51.29.82.07.32.12.74.15,1.26.03.53.05,1.18.05,1.94v4.67c0,1.1-.04,1.87-.11,2.29-.07.4-.2.71-.4.93-.19.22-.56.39-1.09.51l-.11.03v1.41h9.04v-1.4l-.11-.03c-.43-.11-.75-.25-.95-.4-.19-.15-.34-.35-.42-.58-.09-.24-.15-.57-.18-.97-.03-.41-.05-1.02-.05-1.8v-5.68c0-.68.02-1.17.06-1.46.04-.29.12-.55.23-.78.11-.23.26-.44.44-.62.19-.19.42-.38.69-.57.26-.18.53-.32.78-.41.25-.09.54-.13.84-.13.44,0,.8.08,1.06.23.26.15.5.4.69.75.2.35.33.85.41,1.49.07.65.11,1.5.11,2.54v4.67c0,1.09-.04,1.85-.12,2.28-.08.4-.21.72-.4.94-.19.22-.55.39-1.06.51l-.11.03v1.41h9.15v-1.41l-.11-.03c-.32-.08-.59-.17-.82-.28-.21-.11-.38-.24-.49-.39-.12-.15-.21-.36-.28-.6-.07-.26-.12-.61-.13-1.04-.02-.44-.03-.92-.03-1.43v-6.36c0-1.08-.1-2.01-.29-2.79-.19-.78-.51-1.45-.94-1.97-.43-.53-.99-.92-1.65-1.18-.66-.25-1.49-.38-2.49-.38s-1.99.23-2.92.68c-.88.43-1.93,1.16-3.11,2.19-.25-.62-.58-1.13-.97-1.52-.43-.44-.96-.77-1.58-1-.62-.23-1.39-.34-2.31-.34s-1.89.21-2.8.62c-.89.4-1.46,1.06-2.56,2.03h-.19s.01-2.5.01-2.5"/>
        </g>
        <g>
          <path d="M28.35,141.43v1.78l.18.03c.71.13,1.02.27,1.16.36.19.13.33.3.43.52.1.24.17.61.21,1.09.04.5.05,1.36.05,2.56v1.26c-.59-.15-1.11-.25-1.56-.3-.52-.06-1.05-.1-1.58-.1-1.86,0-3.47.35-4.79,1.05-1.33.7-2.35,1.74-3.03,3.1-.67,1.35-1.01,3.02-1.01,4.97,0,2.88.56,5.08,1.67,6.53,1.12,1.47,2.83,2.21,5.07,2.21.9,0,2.44-.32,3.42-.78.92-.43,1.23-.62,2.07-1.41l.04,2.19h7.24l.07-1.81-.18-.04c-.53-.11-.91-.23-1.13-.37-.2-.13-.35-.29-.44-.49-.1-.21-.16-.51-.19-.88-.03-.39-.04-1.02-.04-1.87v-19.61M24.31,156.96c0-1.28.13-2.39.4-3.32.26-.91.64-1.61,1.14-2.09.5-.47,1.07-.7,1.76-.7.95,0,1.63.3,2.08.91.46.63.69,1.62.69,2.95v5.66c0,.61-.16,1.15-.48,1.62-.32.47-.73.82-1.2,1.05-.48.23-.96.34-1.44.34-1,0-1.73-.5-2.2-1.52-.5-1.06-.75-2.71-.75-4.91Z"/>
          <path d="M46.85,166.5c1.58,0,2.99-.26,4.21-.78,1.22-.52,2.46-1.41,3.69-2.65l.15-.15-1.76-1.81-.16.15c-.83.8-1.6,1.36-2.3,1.67-.7.31-1.5.47-2.37.47-1.48,0-2.59-.46-3.3-1.37-.7-.89-1.07-2.29-1.11-4.17h11.38v-.22c-.01-1.35-.14-2.52-.39-3.47-.23-.94-.59-1.78-1.05-2.51-.4-.62-.9-1.16-1.51-1.6-.61-.44-1.34-.78-2.18-1.03-.84-.24-1.82-.37-2.92-.37-1.78,0-3.38.35-4.73,1.05-1.36.7-2.43,1.75-3.17,3.12-.74,1.36-1.11,2.99-1.11,4.86,0,2.89.73,5.11,2.17,6.59,1.44,1.48,3.61,2.24,6.45,2.24ZM44.01,155.56c.12-1.51.43-2.68.93-3.49.51-.82,1.16-1.22,2.01-1.22s1.49.38,1.88,1.16c.4.78.63,1.97.69,3.56h-5.51Z"/>
          <path d="M59.12,165.94c.79.37,1.72.56,2.78.56s2.57-.2,3.52-.62c.91-.4,1.37-.71,2.33-1.57v2.2s6.97,0,6.97,0v-1.79l-.17-.04c-.47-.11-.78-.2-.94-.27-.15-.06-.27-.14-.37-.24-.1-.1-.18-.23-.25-.4-.07-.18-.12-.46-.16-.85-.04-.4-.05-.98-.05-1.71v-6.63c0-1.47-.23-2.64-.67-3.49-.45-.86-1.15-1.49-2.06-1.87-.89-.37-2.09-.56-3.56-.56-.57,0-1.14.04-1.71.1-.56.07-1.21.19-1.93.35-.71.16-1.45.37-2.18.63-.73.25-1.66.61-2.76,1.08l-.14.06v3.46h3.8l.03-.18c.15-.86.38-1.54.69-2.02.3-.47.63-.78.99-.95.37-.17.82-.25,1.34-.25s.95.11,1.31.32c.35.21.65.58.88,1.1.24.54.36,1.33.36,2.35v1.41c-3.43.26-6.04.87-7.75,1.82-1.8,1-2.71,2.39-2.71,4.13,0,.87.21,1.64.62,2.31.41.67,1.02,1.2,1.82,1.57ZM63.39,159.15c.81-.56,2.08-.88,3.77-.94v2.6c0,.48-.13.94-.4,1.36-.27.43-.63.78-1.09,1.04-.45.26-.94.39-1.45.39-.66,0-1.18-.17-1.54-.5-.36-.33-.54-.8-.54-1.44,0-1.11.41-1.93,1.24-2.5Z"/>
          <path d="M75.56,141.7v1.77l.18.03c.48.09.83.18,1.04.29.19.1.34.22.44.38.11.16.19.38.23.66.05.3.09.68.1,1.13.02.45.03,1.17.03,2.14v13.26c0,.72-.01,1.27-.04,1.66-.02.37-.07.66-.15.85-.08.2-.16.36-.26.48-.09.12-.23.22-.41.32-.18.1-.45.18-.79.26l-.17.04v1.52h9.23v-1.52l-.17-.04c-.56-.14-.95-.31-1.14-.52-.19-.21-.32-.5-.39-.87-.07-.39-.1-1.13-.1-2.19v-19.66"/>
          <g>
            <path d="M8.54,148.87v1.71l.18.03c.4.08.72.17.96.27.22.09.4.22.52.4.13.18.22.42.27.73.05.33.08.78.08,1.32v7.99c0,1.07-.04,1.81-.11,2.21-.07.37-.2.66-.4.87-.19.21-.57.38-1.12.52l-.17.04v1.53h9.29v-1.53l-.17-.04c-.32-.07-.58-.16-.77-.26-.18-.09-.31-.19-.4-.29h0c-.09-.11-.17-.23-.23-.36-.06-.13-.11-.29-.14-.46-.03-.17-.06-.44-.08-.78-.02-.34-.03-.84-.03-1.48v-12.44"/>
            <rect x="10.8" y="144.66" width="5.41" height="3.39"/>
          </g>
        </g>
      </g>
    </g>
  </g>
</svg>